<?xml version="1.0" encoding="UTF-8"?>
<!DOCTYPE svg PUBLIC "-//W3C//DTD SVG 1.1//EN" "http://www.w3.org/Graphics/SVG/1.1/DTD/svg11.dtd">
<!-- Creator: CorelDRAW -->
<svg xmlns="http://www.w3.org/2000/svg" xml:space="preserve" width="4.09224in" height="2.67743in" version="1.1" style="shape-rendering:geometricPrecision; text-rendering:geometricPrecision; image-rendering:optimizeQuality; fill-rule:evenodd; clip-rule:evenodd"
viewBox="0 0 4092.24 2677.43"
 xmlns:xlink="http://www.w3.org/1999/xlink"
 xmlns:xodm="http://www.corel.com/coreldraw/odm/2003">
 <defs>
  <style type="text/css">
   <![CDATA[
    .fil0 {fill:#5C56FF}
    .fil1 {fill:#5C56FF;fill-rule:nonzero}
   ]]>
  </style>
 </defs>
 <g id="Layer_x0020_1">
  <metadata id="CorelCorpID_0Corel-Layer"/>
  <g id="_2282028436368">
   <g>
    <rect class="fil0" y="967.53" width="221.78" height="1013.39" rx="110.89" ry="74.62"/>
    <rect class="fil0" x="445.33" y="496.24" width="221.78" height="1955.98" rx="110.89" ry="144.03"/>
    <rect class="fil0" x="888.56" y="892.76" width="221.78" height="1162.94" rx="110.89" ry="85.64"/>
    <rect class="fil0" x="1281.97" y="1234.21" width="221.78" height="480.04" rx="110.89" ry="35.35"/>
   </g>
   <g>
    <g>
     <rect class="fil0" transform="matrix(4.13408E-14 1.34181 -1.04408 2.38481E-14 3079.68 1171.97)" width="132.76" height="901.47" rx="66.38" ry="66.38"/>
     <rect class="fil0" transform="matrix(5.76603E-14 1.34181 -1.45624 2.38481E-14 3451.23 1606.4)" width="132.76" height="901.47" rx="66.38" ry="66.38"/>
     <rect class="fil0" transform="matrix(4.68411E-14 1.34181 -1.18299 2.38481E-14 3204.9 2031.98)" width="132.76" height="901.47" rx="66.38" ry="66.38"/>
    </g>
    <path class="fil0" d="M3478.99 31.69l73.57 220.71c46.7,140.11 147.17,240.57 287.28,287.28l220.71 73.57c19.26,6.42 31.69,23.67 31.69,43.97 0,20.3 -12.43,37.55 -31.69,43.97l-220.71 73.57c-140.11,46.7 -240.57,147.17 -287.28,287.27l-73.57 220.71c-6.42,19.26 -23.67,31.69 -43.97,31.69 -20.3,0 -37.55,-12.43 -43.97,-31.69l-73.57 -220.71c-46.7,-140.11 -147.17,-240.57 -287.27,-287.27l-220.71 -73.57c-19.26,-6.42 -31.69,-23.67 -31.69,-43.97 0,-20.3 12.43,-37.55 31.69,-43.97l220.71 -73.57c140.11,-46.7 240.57,-147.17 287.27,-287.28l73.57 -220.71c6.42,-19.26 23.67,-31.69 43.97,-31.69 20.3,0 37.55,12.43 43.97,31.69z"/>
   </g>
   <g>
    <path class="fil1" d="M1974.69 459.99c-52.18,0 -94.48,-42.3 -94.48,-94.48 0,-52.18 42.3,-94.48 94.48,-94.48l0 188.96zm950.55 0l-950.55 0 0 -188.96 950.55 0 0 188.96zm0 -188.96c52.18,0 94.48,42.3 94.48,94.48 0,52.18 -42.3,94.48 -94.48,94.48l0 -188.96zm760.84 840.9c0,-52.18 42.3,-94.48 94.48,-94.48 52.18,0 94.48,42.3 94.48,94.48l-188.96 0zm0 1274.94l0 -1274.94 188.96 0 0 1274.94 0 0 -188.96 0zm188.96 0c0,52.18 -42.3,94.48 -94.48,94.48 -52.18,0 -94.48,-42.3 -94.48,-94.48l188.96 0zm-290.56 290.56l0 -188.96 0 0 5.25 -0.13 5.11 -0.39 5.02 -0.65 4.96 -0.89 4.85 -1.13 4.75 -1.36 4.68 -1.59 4.57 -1.81 4.49 -2.04 4.37 -2.24 4.26 -2.46 4.15 -2.67 4 -2.85 3.9 -3.07 3.73 -3.24 3.57 -3.4 3.41 -3.57 3.24 -3.73 3.06 -3.88 2.86 -4.02 2.67 -4.15 2.46 -4.26 2.25 -4.39 2.04 -4.49 1.81 -4.57 1.59 -4.68 1.36 -4.75 1.13 -4.85 0.89 -4.96 0.65 -5.03 0.39 -5.11 0.13 -5.25 188.96 0 -0.38 14.85 -1.13 14.74 -1.87 14.54 -2.57 14.3 -3.27 14.08 -3.95 13.82 -4.6 13.52 -5.24 13.22 -5.84 12.87 -6.43 12.52 -7.02 12.17 -7.56 11.77 -8.1 11.37 -8.61 10.94 -9.11 10.51 -9.6 10.06 -10.07 9.61 -10.52 9.11 -10.93 8.6 -11.37 8.11 -11.77 7.56 -12.16 7.01 -12.54 6.44 -12.87 5.84 -13.21 5.23 -13.52 4.6 -13.82 3.95 -14.08 3.27 -14.3 2.57 -14.54 1.87 -14.74 1.13 -14.85 0.38 0 0zm0 0c-52.18,0 -94.48,-42.3 -94.48,-94.48 0,-52.18 42.3,-94.48 94.48,-94.48l0 188.96zm-1609.79 -188.96l1609.79 0 0 188.96 -1609.79 0 0 0 0 -188.96zm0 188.96c-52.18,0 -94.48,-42.3 -94.48,-94.48 0,-52.18 42.3,-94.48 94.48,-94.48l0 188.96zm-290.56 -290.56l188.96 0 0 0 0.13 5.25 0.39 5.11 0.65 5.03 0.89 4.96 1.13 4.85 1.36 4.75 1.59 4.68 1.81 4.57 2.04 4.49 2.25 4.39 2.46 4.26 2.67 4.15 2.86 4.02 3.06 3.88 3.24 3.73 3.41 3.57 3.57 3.41 3.73 3.24 3.88 3.06 4.02 2.86 4.15 2.67 4.26 2.46 4.39 2.25 4.49 2.04 4.57 1.81 4.68 1.59 4.75 1.36 4.85 1.13 4.96 0.89 5.03 0.65 5.11 0.39 5.25 0.13 0 188.96 -14.85 -0.38 -14.74 -1.13 -14.54 -1.87 -14.3 -2.57 -14.08 -3.27 -13.82 -3.95 -13.52 -4.6 -13.22 -5.24 -12.87 -5.84 -12.52 -6.43 -12.17 -7.02 -11.77 -7.56 -11.37 -8.1 -10.94 -8.61 -10.51 -9.11 -10.06 -9.6 -9.6 -10.06 -9.11 -10.51 -8.61 -10.94 -8.1 -11.37 -7.56 -11.77 -7.02 -12.17 -6.43 -12.52 -5.84 -12.87 -5.24 -13.22 -4.6 -13.52 -3.95 -13.82 -3.27 -14.08 -2.57 -14.3 -1.87 -14.54 -1.13 -14.74 -0.38 -14.85 0 0zm0 0c0,-52.18 42.3,-94.48 94.48,-94.48 52.18,0 94.48,42.3 94.48,94.48l-188.96 0zm188.96 -1825.29l0 1825.29 -188.96 0 0 -1825.29 0 0 188.96 0zm-188.96 0c0,-52.18 42.3,-94.48 94.48,-94.48 52.18,0 94.48,42.3 94.48,94.48l-188.96 0zm290.56 -290.56l0 188.96 -5.25 0.13 -5.11 0.39 -5.05 0.65 -4.94 0.89 -4.83 1.13 -4.77 1.36 -4.68 1.59 -4.58 1.82 -4.47 2.03 -4.37 2.25 -4.27 2.46 -4.15 2.67 -4.03 2.87 -3.87 3.04 -3.72 3.23 -3.59 3.42 -3.41 3.57 -3.24 3.73 -3.06 3.88 -2.86 4.02 -2.67 4.15 -2.46 4.26 -2.25 4.37 -2.04 4.48 -1.81 4.57 -1.59 4.68 -1.36 4.75 -1.13 4.85 -0.89 4.96 -0.65 5.02 -0.39 5.11 -0.13 5.25 -188.96 0 0.38 -14.85 1.13 -14.74 1.87 -14.54 2.57 -14.3 3.27 -14.08 3.95 -13.82 4.6 -13.52 5.23 -13.21 5.85 -12.88 6.44 -12.52 7.01 -12.16 7.56 -11.77 8.1 -11.37 8.61 -10.94 9.11 -10.51 9.6 -10.06 10.05 -9.59 10.52 -9.13 10.96 -8.62 11.35 -8.09 11.77 -7.56 12.15 -7.01 12.54 -6.44 12.88 -5.85 13.2 -5.23 13.52 -4.6 13.8 -3.94 14.1 -3.28 14.32 -2.57 14.52 -1.86 14.74 -1.13 14.85 -0.38zm0 0c52.18,0 94.48,42.3 94.48,94.48 0,52.18 -42.3,94.48 -94.48,94.48l0 -188.96z"/>
   </g>
  </g>
 </g>
</svg>
